<svg xmlns="http://www.w3.org/2000/svg" xmlns:xlink="http://www.w3.org/1999/xlink" width="3000" zoomAndPan="magnify" viewBox="0 0 2250 1874.999927" height="2500" preserveAspectRatio="xMidYMid meet" version="1.0"><defs><clipPath id="id1"><path d="M 419.425781 1463.84375 L 1910.425781 1463.84375 L 1910.425781 1814.84375 L 419.425781 1814.84375 Z M 419.425781 1463.84375 " clip-rule="nonzero"/></clipPath><clipPath id="id2"><path d="M 488.074219 144 L 1846 144 L 1846 1687.789062 L 488.074219 1687.789062 Z M 488.074219 144 " clip-rule="nonzero"/></clipPath><clipPath id="id3"><path d="M 1376 246 L 1863.160156 246 L 1863.160156 1224 L 1376 1224 Z M 1376 246 " clip-rule="nonzero"/></clipPath></defs><path fill="#d80000" d="M 1115.136719 1775.171875 C 1394.027344 1747.195312 2170.148438 1682.082031 1943.15625 961.621094 C 1716.167969 241.167969 1363.558594 -87.398438 819.980469 227.1875 C 276.394531 541.773438 159.660156 890.578125 386.652344 1278.933594 C 613.640625 1667.296875 714.722656 1815.335938 1115.136719 1775.171875 " fill-opacity="1" fill-rule="nonzero"/><g clip-path="url(#id1)"><path fill="#ffb000" d="M 1164.925781 1463.84375 C 753.203125 1463.84375 419.433594 1542.417969 419.433594 1639.34375 C 419.433594 1736.269531 753.203125 1814.84375 1164.925781 1814.84375 C 1576.648438 1814.84375 1910.414062 1736.269531 1910.414062 1639.34375 C 1910.414062 1542.417969 1576.648438 1463.84375 1164.925781 1463.84375 " fill-opacity="1" fill-rule="nonzero"/></g><path fill="#00020a" d="M 1562.871094 75.226562 C 1456.074219 79.5 1424.75 125.066406 1422.605469 147.15625 C 1420.476562 169.21875 1497.359375 325.183594 1497.359375 325.183594 L 1602.726562 318.765625 C 1602.726562 318.765625 1622.667969 278.886719 1644.738281 233.320312 C 1666.796875 187.738281 1669.652344 70.953125 1562.871094 75.226562 Z M 1126.550781 684.0625 L 1038.683594 342.257812 C 1035.449219 329.6875 1024.128906 320.882812 1011.144531 320.84375 L 541.914062 319.585938 C 522.789062 319.535156 509.039062 337.949219 514.519531 356.269531 L 617.042969 699.335938 C 620.652344 711.414062 631.753906 719.683594 644.359375 719.683594 L 1098.933594 719.683594 C 1117.566406 719.683594 1131.183594 702.101562 1126.550781 684.0625 Z M 1324.714844 1631.902344 L 1254.933594 1669.484375 C 1255.167969 1673.898438 1255.3125 1678.234375 1255.3125 1682.457031 L 1028.917969 1682.457031 C 1028.917969 1682.457031 1057.402344 1639.730469 1115.773438 1639.730469 C 1174.15625 1639.730469 1169.886719 1599.851562 1169.886719 1599.851562 L 1242.210938 1576.347656 C 1242.210938 1576.347656 1245.066406 1579.957031 1246.367188 1585.488281 L 1293.753906 1568.878906 C 1293.753906 1568.878906 1317.25 1594.515625 1324.714844 1631.902344 " fill-opacity="1" fill-rule="nonzero"/><path fill="#ffb000" d="M 1333.621094 863.53125 L 1034.617188 863.53125 L 1034.617188 853.558594 L 914.621094 853.558594 C 886.941406 853.558594 866.921875 827.117188 874.425781 800.472656 L 897.367188 718.972656 L 1096.804688 718.972656 C 1115.226562 718.972656 1128.71875 701.582031 1124.121094 683.738281 L 1112.175781 637.277344 L 601.761719 637.277344 L 620.160156 698.84375 C 623.730469 710.789062 634.726562 718.972656 647.1875 718.972656 L 740.390625 718.972656 L 716.207031 808.691406 C 708.753906 836.339844 729.578125 863.53125 758.21875 863.53125 L 490.851562 863.53125 L 490.851562 983.171875 L 1333.621094 983.171875 Z M 1806.335938 988.859375 L 1514.445312 948.992188 C 1514.445312 948.992188 1179.84375 1035.867188 1098.6875 1054.375 C 1017.535156 1072.890625 971.964844 1129.863281 1003.292969 1235.257812 C 1034.617188 1340.652344 1128.585938 1611.253906 1128.585938 1611.253906 L 1243.238281 1577.75 L 1247.300781 1587.113281 L 1323.652344 1561.402344 L 1248.496094 1205.351562 C 1292.128906 1205.351562 1356.746094 1205.351562 1451.804688 1205.351562 C 1705.253906 1205.351562 1808.476562 1240.957031 1806.335938 988.859375 Z M 970.417969 503.234375 C 963.410156 487.171875 955.605469 471.703125 947.386719 456.925781 L 970.535156 503.921875 C 970.535156 503.921875 970.484375 503.636719 970.417969 503.234375 Z M 835.269531 307.378906 L 1047.433594 307.378906 C 1047.433594 307.378906 1106.152344 334.402344 1148.527344 417.746094 C 1191.242188 501.78125 1211.171875 602.902344 1211.171875 602.902344 L 999.722656 602.902344 C 999.109375 598.5 998.359375 594.109375 997.554688 589.734375 L 964.835938 629.25 C 964.835938 629.25 960.566406 624.976562 927.109375 570.136719 C 894.183594 516.179688 944.636719 456.757812 946.257812 454.875 C 897.664062 368.269531 835.269531 307.378906 835.269531 307.378906 Z M 1415.089844 291.898438 L 1396.277344 292.417969 L 1416.582031 263.042969 L 1422.605469 147.15625 L 1467.460938 167.804688 C 1467.460938 167.804688 1466.046875 220.503906 1505.902344 241.148438 L 1518.71875 200.554688 C 1518.71875 200.554688 1554.316406 196.28125 1552.898438 229.046875 C 1552.589844 236.058594 1550.847656 242.359375 1548.304688 247.929688 C 1532.570312 282.226562 1557.183594 322.273438 1594.835938 319.792969 C 1597.429688 319.625 1600.054688 319.285156 1602.726562 318.765625 L 1606.285156 370.050781 L 1513.746094 388.554688 L 1514.445312 352.230469 L 1483.820312 364.324219 C 1449.183594 377.996094 1412 351.257812 1413.933594 314.039062 L 1415.089844 291.898438 " fill-opacity="1" fill-rule="nonzero"/><path fill="#921414" d="M 1456.074219 964.289062 L 1404.820312 647.054688 C 1404.820312 647.054688 1243.925781 799.445312 1205.46875 833.625 C 1167.027344 867.804688 1114.34375 874.933594 1073.058594 820.808594 C 1031.761719 766.679688 927.824219 607.175781 927.824219 607.175781 L 1013.261719 571.566406 L 1135.703125 728.230469 C 1135.703125 728.230469 1315.109375 543.089844 1360.679688 498.933594 C 1406.234375 454.78125 1493.089844 422.019531 1493.089844 422.019531 L 1500.214844 384.996094 L 1609.855469 336.570312 L 1625.511719 393.539062 C 1625.511719 393.539062 1696.710938 434.847656 1728.023438 453.355469 C 1759.351562 471.871094 1767.894531 511.753906 1775.019531 567.292969 C 1782.136719 622.835938 1816.304688 926.203125 1820.578125 984.585938 C 1824.847656 1042.984375 1665.382812 1134.132812 1488.816406 958.953125 L 1456.074219 964.289062 " fill-opacity="1" fill-rule="nonzero"/><g clip-path="url(#id2)"><path fill="#00020a" d="M 942.910156 454.589844 C 934.832031 464.730469 893.691406 520.699219 924.746094 571.59375 C 929.445312 579.292969 933.546875 585.097656 937.15625 590.214844 C 939.664062 593.746094 941.921875 596.929688 943.949219 600.175781 C 944.480469 601.003906 945.386719 601.472656 946.308594 601.472656 C 946.816406 601.472656 947.324219 601.332031 947.789062 601.042969 C 949.089844 600.226562 949.476562 598.511719 948.660156 597.214844 C 946.570312 593.890625 944.257812 590.617188 941.703125 586.992188 C 938.132812 581.957031 934.082031 576.226562 929.484375 568.695312 C 901.84375 523.414062 935.703125 473.171875 945.777344 459.9375 L 968.042969 505.144531 C 968.667969 506.390625 970.09375 506.988281 971.40625 506.558594 C 972.730469 506.128906 973.523438 504.792969 973.273438 503.429688 C 973.222656 503.144531 968.226562 475.351562 963.964844 459.070312 C 962.410156 453.054688 963.589844 449.679688 965.445312 449.003906 C 967.652344 448.226562 971.433594 450.378906 973.714844 455.25 C 977.15625 462.546875 977.820312 463.78125 982.140625 471.847656 C 985.0625 477.289062 989.683594 485.898438 997.980469 501.648438 C 1017.609375 538.894531 996.035156 574.644531 995.8125 574.996094 C 994.996094 576.304688 995.410156 578.007812 996.710938 578.824219 C 998.007812 579.628906 999.722656 579.226562 1000.527344 577.917969 C 1001.5 576.359375 1024.039062 539.179688 1002.902344 499.066406 C 994.578125 483.289062 989.957031 474.664062 987.035156 469.210938 C 982.675781 461.09375 982.117188 460.054688 978.753906 452.886719 C 974.898438 444.691406 968.171875 442.109375 963.5625 443.785156 C 959.449219 445.277344 955.980469 450.445312 958.59375 460.472656 C 960.175781 466.507812 961.851562 474.15625 963.34375 481.378906 C 958.980469 472.484375 954.410156 463.769531 949.6875 455.300781 L 948.828125 453.550781 C 948.738281 453.378906 948.582031 453.277344 948.464844 453.121094 C 907.828125 380.929688 857.351562 326.144531 841.902344 310.15625 L 1046.796875 310.15625 C 1052.675781 313.09375 1106.699219 341.621094 1146.050781 419.007812 C 1183.777344 493.246094 1203.886719 582.007812 1207.753906 600.121094 L 1038.914062 600.121094 C 1037.382812 600.121094 1036.136719 601.371094 1036.136719 602.902344 C 1036.136719 604.433594 1037.382812 605.679688 1038.914062 605.679688 L 1211.171875 605.679688 C 1212 605.679688 1212.792969 605.304688 1213.324219 604.667969 C 1213.84375 604.019531 1214.050781 603.175781 1213.894531 602.371094 C 1213.703125 601.355469 1193.398438 499.898438 1150.996094 416.5 C 1108.671875 333.234375 1051.027344 305.964844 1048.589844 304.847656 C 1048.222656 304.675781 1047.835938 304.597656 1047.433594 304.597656 L 835.269531 304.597656 C 834.140625 304.597656 833.128906 305.273438 832.699219 306.328125 C 832.269531 307.378906 832.53125 308.574219 833.335938 309.367188 C 834.023438 310.039062 895.121094 370.140625 942.910156 454.589844 Z M 1121.289062 709.75 C 1127.210938 702.128906 1129.222656 692.386719 1126.808594 683.039062 L 1114.878906 636.574219 C 1114.488281 635.082031 1112.996094 634.199219 1111.488281 634.574219 C 1110.007812 634.964844 1109.101562 636.46875 1109.488281 637.949219 L 1121.433594 684.429688 C 1123.40625 692.101562 1121.757812 700.078125 1116.902344 706.347656 Z M 1810.410156 1592.800781 L 1685.425781 1207.597656 C 1685.078125 1206.492188 1685.441406 1205.335938 1686.269531 1204.621094 C 1648.402344 1210.765625 1601.171875 1210.246094 1543.578125 1209.234375 C 1544.773438 1209.804688 1545.449219 1211.140625 1545.058594 1212.453125 L 1434.082031 1592.800781 L 1611.347656 1592.800781 L 1611.347656 1219.582031 C 1611.347656 1218.050781 1612.582031 1216.804688 1614.125 1216.804688 C 1615.660156 1216.804688 1616.90625 1218.050781 1616.90625 1219.582031 L 1616.90625 1592.800781 Z M 1244.625 1208.128906 L 1164.914062 1208.128906 L 1258 1573.542969 C 1258.375 1574.984375 1257.53125 1576.464844 1256.089844 1576.878906 L 1247.792969 1579.308594 L 1249.730469 1583.660156 L 1320.417969 1559.570312 Z M 801.035156 866.386719 L 801.035156 980.394531 L 1330.84375 980.394531 L 1330.84375 866.308594 L 801.019531 866.308594 C 801.019531 866.335938 801.035156 866.363281 801.035156 866.386719 Z M 795.476562 980.394531 L 795.476562 866.386719 C 795.476562 866.363281 795.492188 866.335938 795.492188 866.308594 L 493.628906 866.308594 L 493.628906 980.394531 Z M 758.21875 860.753906 L 1031.839844 860.753906 L 1031.839844 856.335938 L 914.621094 856.335938 C 900.546875 856.335938 887.617188 849.910156 879.113281 838.6875 C 870.621094 827.46875 867.933594 813.277344 871.75 799.730469 L 893.691406 721.75 L 743.117188 721.75 L 718.894531 809.429688 C 715.570312 821.753906 718.113281 834.652344 725.890625 844.792969 C 733.652344 854.933594 745.441406 860.753906 758.21875 860.753906 Z M 1843.503906 1685.820312 C 1843.230469 1685.910156 1842.933594 1685.949219 1842.648438 1685.949219 C 1841.480469 1685.949219 1840.390625 1685.210938 1840.011719 1684.027344 L 1812.214844 1598.359375 L 1616.90625 1598.359375 L 1616.90625 1685.3125 C 1616.90625 1686.847656 1615.660156 1688.09375 1614.125 1688.09375 C 1612.582031 1688.09375 1611.347656 1686.847656 1611.347656 1685.3125 L 1611.347656 1598.359375 L 1432.460938 1598.359375 L 1407.480469 1683.949219 C 1407.128906 1685.15625 1406.015625 1685.949219 1404.820312 1685.949219 C 1404.558594 1685.949219 1404.300781 1685.910156 1404.039062 1685.832031 C 1402.5625 1685.402344 1401.71875 1683.871094 1402.144531 1682.390625 L 1426.957031 1597.398438 C 1426.527344 1596.90625 1426.242188 1596.28125 1426.242188 1595.578125 C 1426.242188 1594.320312 1427.097656 1593.292969 1428.253906 1592.957031 L 1539.734375 1210.90625 C 1539.957031 1210.101562 1540.527344 1209.519531 1541.242188 1209.195312 C 1539.28125 1209.15625 1537.335938 1209.117188 1535.347656 1209.078125 C 1508.980469 1208.621094 1481.714844 1208.128906 1451.804688 1208.128906 L 1336.402344 1208.128906 L 1336.402344 1683.171875 C 1336.402344 1684.703125 1335.15625 1685.949219 1333.621094 1685.949219 C 1332.089844 1685.949219 1330.84375 1684.703125 1330.84375 1683.171875 L 1330.84375 1208.128906 L 1250.3125 1208.128906 L 1326.367188 1560.816406 C 1326.664062 1562.191406 1325.886719 1563.582031 1324.546875 1564.035156 L 1249.117188 1589.75 C 1248.820312 1589.839844 1248.519531 1589.890625 1248.222656 1589.890625 C 1247.15625 1589.890625 1246.144531 1589.269531 1245.679688 1588.242188 L 1242.417969 1580.878906 L 1129.367188 1613.917969 C 1129.105469 1613.992188 1128.847656 1614.03125 1128.585938 1614.03125 C 1127.433594 1614.03125 1126.367188 1613.304688 1125.964844 1612.164062 C 1125.015625 1609.449219 1031.605469 1340.300781 1000.628906 1236.046875 C 985.558594 1185.339844 987.386719 1143.394531 1006.082031 1111.382812 C 1023.402344 1081.734375 1054.351562 1061.644531 1098.066406 1051.671875 C 1139.660156 1042.179688 1241.757812 1016.609375 1330.84375 994.078125 L 1330.84375 985.949219 L 801.035156 985.949219 L 801.035156 1683.171875 C 801.035156 1684.703125 799.789062 1685.949219 798.253906 1685.949219 C 796.722656 1685.949219 795.476562 1684.703125 795.476562 1683.171875 L 795.476562 985.949219 L 493.628906 985.949219 L 493.628906 1683.171875 C 493.628906 1684.703125 492.382812 1685.949219 490.851562 1685.949219 C 489.320312 1685.949219 488.074219 1684.703125 488.074219 1683.171875 L 488.074219 863.53125 C 488.074219 862 489.320312 860.753906 490.851562 860.753906 L 736.289062 860.753906 C 730.617188 857.699219 725.550781 853.480469 721.476562 848.167969 C 712.648438 836.636719 709.753906 821.988281 713.53125 807.964844 L 737.355469 721.75 L 647.1875 721.75 C 633.597656 721.75 621.394531 712.660156 617.496094 699.632812 L 599.101562 638.066406 C 598.660156 636.601562 599.492188 635.042969 600.972656 634.601562 C 602.425781 634.171875 603.984375 635.003906 604.425781 636.46875 L 622.820312 698.050781 C 626.015625 708.726562 636.035156 716.191406 647.1875 716.191406 L 999.589844 716.191406 L 1003.746094 721.75 L 899.46875 721.75 L 877.097656 801.238281 C 873.761719 813.082031 876.113281 825.519531 883.539062 835.339844 C 890.976562 845.15625 902.300781 850.777344 914.621094 850.777344 L 1034.617188 850.777344 C 1036.152344 850.777344 1037.398438 852.027344 1037.398438 853.558594 L 1037.398438 860.753906 L 1333.621094 860.753906 C 1335.15625 860.753906 1336.402344 862 1336.402344 863.53125 L 1336.402344 992.675781 C 1416.699219 972.355469 1485.027344 954.875 1486.46875 954.5 C 1487.972656 954.109375 1489.46875 955.019531 1489.84375 956.5 C 1490.234375 957.992188 1489.335938 959.5 1487.84375 959.886719 C 1484.78125 960.679688 1179.570312 1038.777344 1099.296875 1057.089844 C 1057.144531 1066.699219 1027.398438 1085.917969 1010.875 1114.1875 C 992.996094 1144.820312 991.335938 1185.285156 1005.953125 1234.464844 C 1035.304688 1333.210938 1120.785156 1580.257812 1130.339844 1607.839844 L 1251.960938 1572.308594 L 1158.640625 1206.039062 C 1158.433594 1205.207031 1158.617188 1204.324219 1159.136719 1203.648438 C 1159.667969 1202.960938 1160.472656 1202.570312 1161.328125 1202.570312 L 1451.804688 1202.570312 C 1481.769531 1202.570312 1509.058594 1203.050781 1535.453125 1203.519531 C 1645.960938 1205.503906 1718.960938 1206.804688 1760.257812 1165.886719 C 1790.988281 1135.433594 1804.335938 1080.851562 1803.570312 988.886719 C 1803.558594 987.351562 1804.789062 986.09375 1806.324219 986.082031 C 1806.324219 986.082031 1806.335938 986.082031 1806.347656 986.082031 C 1807.867188 986.082031 1809.113281 987.3125 1809.125 988.847656 C 1809.917969 1082.425781 1796.054688 1138.25 1764.167969 1169.832031 C 1745.304688 1188.53125 1720.453125 1198.753906 1689.035156 1204.179688 C 1689.804688 1204.480469 1690.4375 1205.050781 1690.710938 1205.882812 L 1845.296875 1682.3125 C 1845.765625 1683.769531 1844.972656 1685.339844 1843.503906 1685.820312 Z M 1044.785156 617.496094 L 963.617188 657.378906 C 962.238281 658.054688 961.667969 659.714844 962.34375 661.09375 C 962.835938 662.078125 963.824219 662.652344 964.847656 662.652344 C 965.253906 662.652344 965.667969 662.558594 966.070312 662.363281 L 1047.226562 622.484375 C 1048.601562 621.808594 1049.171875 620.148438 1048.496094 618.769531 C 1047.835938 617.394531 1046.160156 616.824219 1044.785156 617.496094 Z M 1490.425781 422.8125 C 1490.777344 424.019531 1491.894531 424.796875 1493.089844 424.796875 C 1493.347656 424.796875 1493.621094 424.773438 1493.882812 424.695312 L 1614.90625 389.085938 C 1616.371094 388.65625 1617.214844 387.113281 1616.789062 385.632812 C 1616.359375 384.164062 1614.800781 383.308594 1613.335938 383.761719 L 1492.308594 419.355469 C 1490.84375 419.785156 1490 421.332031 1490.425781 422.8125 Z M 1396.355469 295.199219 L 1412.15625 294.757812 L 1411.15625 313.898438 C 1410.195312 332.324219 1418.570312 349.753906 1433.539062 360.515625 C 1448.492188 371.296875 1467.683594 373.683594 1484.84375 366.90625 L 1511.601562 356.363281 L 1511.136719 379.828125 C 1511.109375 381.359375 1512.316406 382.632812 1513.863281 382.660156 C 1513.875 382.660156 1513.886719 382.660156 1513.914062 382.660156 C 1515.417969 382.660156 1516.652344 381.449219 1516.691406 379.929688 L 1517.238281 352.296875 C 1517.25 351.363281 1516.808594 350.492188 1516.042969 349.960938 C 1515.277344 349.425781 1514.304688 349.324219 1513.433594 349.648438 L 1482.808594 361.738281 C 1467.433594 367.816406 1450.207031 365.671875 1436.78125 356.011719 C 1423.359375 346.351562 1415.84375 330.714844 1416.699219 314.183594 L 1417.855469 292.042969 C 1417.894531 291.261719 1417.609375 290.507812 1417.0625 289.953125 C 1416.53125 289.394531 1415.648438 289.09375 1415.011719 289.121094 L 1401.679688 289.484375 L 1418.867188 264.628906 C 1419.164062 264.199219 1419.335938 263.707031 1419.359375 263.1875 L 1421.878906 214.929688 C 1421.917969 215.203125 1421.96875 215.476562 1422.101562 215.734375 C 1422.828125 217.085938 1424.515625 217.621094 1425.851562 216.90625 C 1426.226562 216.722656 1434.902344 212.347656 1441.988281 223.425781 C 1442.523438 224.242188 1443.417969 224.695312 1444.324219 224.695312 C 1444.84375 224.695312 1445.351562 224.554688 1445.832031 224.269531 C 1447.117188 223.4375 1447.492188 221.722656 1446.664062 220.425781 C 1438.820312 208.164062 1427.941406 209.542969 1423.28125 211.984375 C 1422.617188 212.332031 1422.164062 212.90625 1421.945312 213.566406 L 1425.175781 151.390625 L 1464.683594 169.582031 C 1464.8125 179.425781 1467.488281 224.371094 1504.628906 243.617188 C 1505.359375 243.992188 1506.214844 244.03125 1506.96875 243.722656 C 1507.734375 243.394531 1508.304688 242.773438 1508.550781 241.980469 L 1520.808594 203.203125 C 1525.15625 203.011719 1536.503906 203.257812 1543.683594 209.929688 C 1548.316406 214.242188 1550.472656 220.632812 1550.121094 228.917969 C 1549.847656 235.046875 1548.394531 241.058594 1545.773438 246.773438 C 1537.710938 264.34375 1539.449219 285.042969 1550.304688 300.792969 C 1560.664062 315.820312 1576.984375 323.753906 1595.015625 322.570312 C 1596.730469 322.457031 1598.457031 322.273438 1600.171875 322.027344 L 1601.351562 339.039062 C 1601.457031 340.570312 1602.792969 341.636719 1604.3125 341.621094 C 1605.855469 341.507812 1607 340.179688 1606.894531 338.648438 L 1605.507812 318.574219 C 1605.453125 317.78125 1605.050781 317.054688 1604.429688 316.574219 C 1603.792969 316.078125 1603.011719 315.882812 1602.195312 316.039062 C 1599.714844 316.519531 1597.171875 316.859375 1594.640625 317.015625 C 1578.644531 318.09375 1564.089844 311.015625 1554.875 297.640625 C 1545.136719 283.496094 1543.578125 264.902344 1550.824219 249.085938 C 1553.746094 242.707031 1555.378906 236.007812 1555.664062 229.164062 C 1556.105469 219.152344 1553.328125 211.308594 1547.433594 205.828125 C 1536.554688 195.75 1519.144531 197.722656 1518.390625 197.800781 C 1517.300781 197.933594 1516.40625 198.683594 1516.070312 199.722656 L 1504.28125 237.070312 C 1469.410156 216.464844 1470.226562 168.375 1470.238281 167.871094 C 1470.265625 166.765625 1469.640625 165.738281 1468.628906 165.273438 L 1423.773438 144.625 C 1422.945312 144.25 1421.96875 144.300781 1421.179688 144.765625 C 1420.386719 145.246094 1419.894531 146.09375 1419.839844 147.015625 L 1413.855469 262.121094 L 1393.992188 290.835938 C 1393.394531 291.703125 1393.332031 292.820312 1393.824219 293.742188 C 1394.328125 294.664062 1395.238281 295.199219 1396.355469 295.199219 Z M 1443.675781 301.46875 C 1436.160156 311.820312 1426.085938 312.066406 1425.632812 312.066406 C 1424.097656 312.078125 1422.867188 313.3125 1422.867188 314.84375 C 1422.867188 316.390625 1424.097656 317.625 1425.632812 317.625 C 1426.175781 317.625 1438.914062 317.480469 1448.183594 304.730469 C 1449.078125 303.496094 1448.804688 301.753906 1447.558594 300.859375 C 1446.324219 299.964844 1444.585938 300.222656 1443.675781 301.46875 Z M 1458.0625 595.265625 C 1459.140625 596.371094 1459.113281 598.121094 1458.011719 599.199219 L 1406.753906 649.042969 C 1406.207031 649.574219 1405.519531 649.832031 1404.820312 649.832031 C 1404.09375 649.832031 1403.367188 649.546875 1402.820312 648.988281 C 1401.757812 647.886719 1401.78125 646.132812 1402.871094 645.066406 L 1454.140625 595.214844 C 1455.246094 594.148438 1456.996094 594.175781 1458.0625 595.265625 " fill-opacity="1" fill-rule="nonzero"/></g><g clip-path="url(#id3)"><path fill="#00020a" d="M 1433.289062 254.679688 C 1435.652344 254.679688 1437.5625 252.773438 1437.5625 250.410156 C 1437.5625 248.046875 1435.652344 246.136719 1433.289062 246.136719 C 1430.929688 246.136719 1429.019531 248.046875 1429.019531 250.410156 C 1429.019531 252.773438 1430.929688 254.679688 1433.289062 254.679688 Z M 1736.566406 1223.867188 C 1591.015625 1223.867188 1447.261719 1222.074219 1393.847656 1221.335938 C 1381.632812 1221.152344 1373.089844 1208.804688 1377.671875 1197.46875 C 1384.449219 1180.726562 1399.328125 1161.195312 1431.863281 1161.195312 C 1488.816406 1161.195312 1504.488281 1161.195312 1547.199219 1161.195312 C 1634.054688 1161.195312 1658.269531 943.292969 1730.878906 943.292969 C 1760.777344 943.292969 1796.378906 943.292969 1827.703125 943.292969 C 1859.019531 943.292969 1920.246094 1223.867188 1736.566406 1223.867188 " fill-opacity="1" fill-rule="nonzero"/></g></svg>